<svg width="1052" height="736" xmlns="http://www.w3.org/2000/svg" xmlns:xlink="http://www.w3.org/1999/xlink" overflow="hidden"><defs><clipPath id="clip0"><path d="M2071 2406 3123 2406 3123 3142 2071 3142Z" fill-rule="evenodd" clip-rule="evenodd"/></clipPath><clipPath id="clip1"><path d="M2113 3023 2176 3023 2176 3086 2113 3086Z" fill-rule="evenodd" clip-rule="evenodd"/></clipPath><clipPath id="clip2"><path d="M2113 3023 2176 3023 2176 3086 2113 3086Z" fill-rule="evenodd" clip-rule="evenodd"/></clipPath><clipPath id="clip3"><path d="M2113 3023 2176 3023 2176 3086 2113 3086Z" fill-rule="evenodd" clip-rule="evenodd"/></clipPath></defs><g clip-path="url(#clip0)" transform="translate(-2071 -2406)"><rect x="2082" y="2407" width="1036" height="604" fill="#262626"/><text fill="#F8F8F2" font-family="Cascadia Code,Cascadia Code_MSFontService,sans-serif" font-weight="400" font-size="24" transform="translate(2085.62 2437)">&lt;http://alice.pod/share/policy&gt; <tspan fill="#AE81FF" x="448" y="0">a</tspan><tspan fill="#F4BF75" x="476" y="0">odrl:</tspan><tspan fill="#FFFFFF" x="546" y="0">Policy</tspan><tspan x="644" y="0">; </tspan><tspan fill="#F4BF75" x="28" y="38">odrl:</tspan><tspan fill="#FFFFFF" x="98" y="38">permission</tspan><tspan x="252" y="38">[ </tspan><tspan fill="#F4BF75" x="56" y="75">odrl:</tspan><tspan fill="#FFFFFF" x="126" y="75">target</tspan><tspan x="224" y="75">&lt;http://alice.pod/share/photoAnnotations/&gt; ; </tspan><tspan fill="#F4BF75" x="56" y="112">odrl:</tspan><tspan fill="#FFFFFF" x="126" y="112">action</tspan><tspan x="224" y="112">[ </tspan><tspan fill="#F4BF75" x="84" y="150">rdf:</tspan><tspan fill="#FFFFFF" x="140" y="150">value</tspan><tspan fill="#F4BF75" x="224" y="150">acl:</tspan><tspan fill="#FFFFFF" x="280" y="150">Read</tspan><tspan x="350" y="150">; </tspan><tspan fill="#F4BF75" x="84" y="187">odrl:</tspan><tspan fill="#FFFFFF" x="154" y="187">refinement</tspan><tspan fill="#FFFFFF" x="308" y="187">[</tspan><tspan fill="#75715E" x="322" y="187"># </tspan><tspan fill="#75715E" x="350" y="187">refine</tspan><tspan fill="#75715E" x="448" y="187">the</tspan><tspan fill="#75715E" x="504" y="187">agent</tspan><tspan fill="#AE81FF" x="112" y="225">a</tspan><tspan fill="#F4BF75" x="140" y="225">sh:</tspan><tspan fill="#FFFFFF" x="182" y="225">NodeShape</tspan><tspan x="322" y="225">; </tspan><tspan fill="#F4BF75" x="112" y="262">sh:</tspan><tspan fill="#FFFFFF" x="154" y="262">targetObjectsOf</tspan><tspan fill="#F4BF75" x="378" y="262">ldp:</tspan><tspan fill="#FFFFFF" x="434" y="262">contains</tspan><tspan x="560" y="262">; </tspan><tspan fill="#F4BF75" x="112" y="300">sh:</tspan><tspan fill="#FFFFFF" x="154" y="300">rule</tspan><tspan x="224" y="300">[ </tspan><tspan fill="#AE81FF" x="252" y="300">a</tspan><tspan fill="#F4BF75" x="280" y="300">sh:</tspan><tspan fill="#FFFFFF" x="322" y="300">SPARQLRule</tspan><tspan x="476" y="300">; </tspan><tspan fill="#F4BF75" x="140" y="337">sh:</tspan><tspan fill="#FFFFFF" x="182" y="337">construct</tspan><tspan fill="#A6E22E" x="322" y="337">""" CONSTRUCT WHERE { $</tspan><tspan fill="#A6E22E" x="644" y="337">this</tspan><tspan fill="#A6E22E" x="714" y="337">a ?o . } """</tspan><tspan x="896" y="337">; </tspan><tspan fill="#F4BF75" x="140" y="375">sh:</tspan><tspan fill="#FFFFFF" x="182" y="375">condition</tspan><tspan x="322" y="375">[ </tspan><tspan fill="#F4BF75" x="168" y="412">sh:</tspan><tspan fill="#FFFFFF" x="210" y="412">pattern</tspan><tspan fill="#A6E22E" x="322" y="412">"private"</tspan><tspan x="462" y="412">; </tspan><tspan fill="#F4BF75" x="490" y="412">sh:</tspan><tspan fill="#FFFFFF" x="532" y="412">flags</tspan><tspan fill="#A6E22E" x="616" y="412">"i"</tspan><tspan x="672" y="412">; </tspan><tspan fill="#F4BF75" x="168" y="449">sh:</tspan><tspan fill="#FFFFFF" x="210" y="449">property</tspan><tspan x="336" y="449">[</tspan><tspan fill="#F4BF75" x="196" y="487">sh:</tspan><tspan fill="#FFFFFF" x="238" y="487">path</tspan><tspan x="308" y="487">[ </tspan><tspan fill="#F4BF75" x="336" y="487">sh:</tspan><tspan fill="#FFFFFF" x="378" y="487">inversePath</tspan><tspan fill="#F4BF75" x="546" y="487">ldp:</tspan><tspan fill="#FFFFFF" x="602" y="487">contains</tspan><tspan x="728" y="487">] ; </tspan><tspan fill="#F4BF75" x="196" y="524">sh:</tspan><tspan fill="#FFFFFF" x="238" y="524">hasValue</tspan><tspan x="364" y="524">&lt;http://alice.pod/share/photoAnnotations/&gt; ;   </tspan><tspan fill="#F4BF75" x="196" y="562">sh:</tspan><tspan fill="#FFFFFF" x="238" y="562">minCount</tspan><tspan fill="#A6E22E" x="364" y="562">1</tspan><tspan x="392" y="562">.</tspan><tspan x="434" y="562">]]]]]].</tspan></text><g clip-path="url(#clip1)"><g clip-path="url(#clip2)"><g clip-path="url(#clip3)"><path d="M2144.5 3068.28 2147.24 3068.28C2148.05 3069.19 2149.35 3069.51 2150.49 3069.07 2151.63 3068.63 2152.39 3067.54 2152.39 3066.31 2152.39 3065.09 2151.63 3063.99 2150.49 3063.55 2149.35 3063.12 2148.05 3063.43 2147.24 3064.34L2144.5 3064.34 2144.5 3058.44 2147.45 3058.44 2147.45 3055.7C2146.54 3054.89 2146.23 3053.59 2146.66 3052.45 2147.1 3051.3 2148.2 3050.55 2149.42 3050.55 2150.65 3050.55 2151.74 3051.3 2152.18 3052.45 2152.62 3053.59 2152.3 3054.89 2151.39 3055.7L2151.39 3058.44 2160.62 3058.44C2161.02 3056.48 2161.23 3054.48 2161.23 3052.48L2161.23 3034.81 2160.66 3034.77C2156.41 3034.47 2152.24 3033.46 2148.32 3031.79 2144.4 3030.13 2140.78 3027.82 2137.61 3024.97 2131.23 3030.71 2123.12 3034.16 2114.56 3034.77L2113.98 3034.81 2113.98 3052.48C2113.98 3062.35 2118.92 3071.57 2127.13 3077.05L2137.61 3084.03 2148.08 3077.05C2149.76 3075.93 2151.31 3074.64 2152.72 3073.2L2144.5 3073.2Z" fill="#FF8A65"/><path d="M2165.17 3070.25 2165.17 3067.51C2166.08 3066.7 2166.4 3065.4 2165.96 3064.26 2165.53 3063.12 2164.43 3062.36 2163.2 3062.36 2161.98 3062.36 2160.88 3063.12 2160.44 3064.26 2160.01 3065.4 2160.32 3066.7 2161.23 3067.51L2161.23 3070.25 2158.28 3070.25 2158.28 3076.16 2161.02 3076.16C2161.83 3075.24 2163.13 3074.93 2164.27 3075.37 2165.42 3075.8 2166.17 3076.9 2166.17 3078.13 2166.17 3079.35 2165.42 3080.45 2164.27 3080.88 2163.13 3081.32 2161.83 3081.01 2161.02 3080.09L2158.28 3080.09 2158.28 3085.02 2166.5 3085.02C2170.51 3080.96 2173.25 3075.83 2174.4 3070.25Z" fill="#A6E7FF"/><path d="M2144.5 3073.2 2144.5 3068.28 2147.24 3068.28C2148.05 3069.19 2149.35 3069.51 2150.49 3069.07 2151.63 3068.63 2152.39 3067.54 2152.39 3066.31 2152.39 3065.09 2151.63 3063.99 2150.49 3063.55 2149.35 3063.12 2148.05 3063.43 2147.24 3064.34L2144.5 3064.34 2144.5 3058.44 2147.45 3058.44 2147.45 3055.7C2146.54 3054.89 2146.23 3053.59 2146.66 3052.45 2147.1 3051.3 2148.2 3050.55 2149.42 3050.55 2150.65 3050.55 2151.74 3051.3 2152.18 3052.45 2152.62 3053.59 2152.3 3054.89 2151.39 3055.7L2151.39 3058.44 2156.59 3058.44C2157.06 3056.49 2157.29 3054.48 2157.3 3052.48L2157.3 3038.37C2153.68 3037.84 2150.14 3036.85 2146.78 3035.41 2143.51 3034.03 2140.43 3032.24 2137.61 3030.08 2131.85 3034.46 2125.08 3037.31 2117.92 3038.37L2117.92 3052.48C2117.91 3061.04 2122.19 3069.03 2129.32 3073.77L2137.61 3079.3 2145.9 3073.77C2146.17 3073.59 2146.43 3073.39 2146.7 3073.2Z" fill="#FFE082"/><path d="M2136.63 3034.81 2138.59 3034.81 2138.59 3048.59 2136.63 3048.59Z" fill="#FFFFFF"/><path d="M2132.69 3037.77 2134.66 3037.77 2134.66 3045.64 2132.69 3045.64Z" fill="#FFFFFF"/><path d="M2128.75 3039.73 2130.72 3039.73 2130.72 3043.67 2128.75 3043.67Z" fill="#FFFFFF"/><path d="M2145.48 3069.27 2146.83 3069.27C2148.42 3070.66 2150.82 3070.56 2152.28 3069.04 2153.74 3067.51 2153.74 3065.11 2152.28 3063.59 2150.82 3062.06 2148.42 3061.96 2146.83 3063.36L2145.48 3063.36 2145.48 3059.42 2148.44 3059.42 2148.44 3055.26 2148.11 3054.97C2147.69 3054.6 2147.45 3054.07 2147.45 3053.52 2147.45 3052.43 2148.33 3051.55 2149.42 3051.55 2150.51 3051.55 2151.39 3052.43 2151.39 3053.52 2151.39 3054.07 2151.15 3054.6 2150.73 3054.97L2150.41 3055.27 2150.41 3059.42 2161.42 3059.42 2161.58 3058.63C2162 3056.61 2162.21 3054.55 2162.22 3052.48L2162.22 3033.89 2160.73 3033.79C2156.59 3033.5 2152.52 3032.52 2148.7 3030.89 2144.88 3029.27 2141.35 3027.02 2138.27 3024.24L2137.61 3023.64 2136.95 3024.23C2130.73 3029.82 2122.83 3033.18 2114.49 3033.79L2113 3033.89 2113 3052.48C2112.99 3062.68 2118.09 3072.22 2126.59 3077.87L2137.61 3085.21 2148.63 3077.86C2150.36 3076.71 2151.97 3075.38 2153.43 3073.89L2155.08 3072.22 2145.48 3072.22ZM2147.54 3076.23 2137.61 3082.85 2127.68 3076.23C2119.73 3070.94 2114.96 3062.02 2114.97 3052.48L2114.97 3035.73C2123.32 3035.04 2131.25 3031.74 2137.61 3026.28 2140.7 3028.94 2144.18 3031.11 2147.93 3032.7 2151.85 3034.37 2156.01 3035.39 2160.25 3035.73L2160.25 3052.48C2160.25 3054.15 2160.1 3055.81 2159.8 3057.45L2157.8 3057.45C2158.12 3055.81 2158.28 3054.14 2158.28 3052.47L2158.28 3037.51 2157.44 3037.39C2153.9 3036.88 2150.45 3035.91 2147.17 3034.5 2143.97 3033.15 2140.96 3031.4 2138.21 3029.29L2137.61 3028.84 2137.02 3029.3C2131.39 3033.58 2124.78 3036.37 2117.78 3037.4L2116.94 3037.52 2116.94 3048.59 2118.91 3048.59 2118.91 3039.21C2125.67 3038.08 2132.08 3035.37 2137.61 3031.31 2140.33 3033.32 2143.28 3035 2146.4 3036.32 2149.58 3037.68 2152.9 3038.65 2156.31 3039.21L2156.31 3052.47C2156.31 3054.15 2156.13 3055.82 2155.79 3057.45L2152.38 3057.45 2152.38 3056.1C2153.77 3054.52 2153.67 3052.12 2152.15 3050.66 2150.62 3049.2 2148.22 3049.2 2146.7 3050.66 2145.17 3052.12 2145.07 3054.52 2146.47 3056.1L2146.47 3057.45 2143.52 3057.45 2143.52 3065.33 2147.67 3065.33 2147.97 3065C2148.34 3064.59 2148.87 3064.35 2149.42 3064.34 2150.51 3064.34 2151.39 3065.23 2151.39 3066.31 2151.39 3067.4 2150.51 3068.28 2149.42 3068.28 2148.86 3068.28 2148.33 3068.04 2147.97 3067.62L2147.67 3067.3 2143.52 3067.3 2143.52 3074.18 2137.61 3078.12 2129.87 3072.96C2124.7 3069.52 2121.02 3064.25 2119.58 3058.21L2117.66 3058.67C2119.22 3065.19 2123.19 3070.88 2128.77 3074.59L2137.61 3080.48 2146.45 3074.59C2146.62 3074.47 2146.79 3074.35 2146.95 3074.23L2147.01 3074.19 2150.23 3074.19C2149.37 3074.92 2148.47 3075.6 2147.54 3076.23Z"/><path d="M2166.16 3067.92C2167.55 3066.33 2167.45 3063.93 2165.93 3062.47 2164.41 3061.01 2162 3061.01 2160.48 3062.47 2158.95 3063.93 2158.85 3066.33 2160.25 3067.92L2160.25 3069.27 2157.3 3069.27 2157.3 3077.14 2161.45 3077.14 2161.75 3076.82C2162.12 3076.4 2162.65 3076.16 2163.2 3076.16 2164.29 3076.16 2165.17 3077.04 2165.17 3078.13 2165.17 3079.21 2164.29 3080.09 2163.2 3080.09 2162.65 3080.09 2162.12 3079.85 2161.75 3079.43L2161.45 3079.11 2157.3 3079.11 2157.3 3086 2166.92 3086 2167.2 3085.7C2171.34 3081.51 2174.18 3076.21 2175.36 3070.45L2175.61 3069.27 2166.16 3069.27ZM2173.16 3071.23C2171.96 3076.04 2169.52 3080.45 2166.09 3084.03L2159.27 3084.03 2159.27 3081.08 2160.61 3081.08C2162.2 3082.47 2164.6 3082.37 2166.06 3080.85 2167.52 3079.33 2167.52 3076.92 2166.06 3075.4 2164.6 3073.88 2162.2 3073.78 2160.61 3075.17L2159.27 3075.17 2159.27 3071.23 2162.22 3071.23 2162.22 3067.08 2161.89 3066.78C2161.48 3066.41 2161.24 3065.88 2161.23 3065.33 2161.23 3064.24 2162.12 3063.36 2163.2 3063.36 2164.29 3063.36 2165.17 3064.24 2165.17 3065.33 2165.17 3065.89 2164.93 3066.42 2164.51 3066.78L2164.19 3067.08 2164.19 3071.23Z"/><path d="M2118.98 3054.43 2117.02 3054.57C2117.07 3055.26 2117.15 3055.96 2117.27 3056.63L2119.21 3056.31C2119.1 3055.69 2119.03 3055.06 2118.98 3054.43Z"/><path d="M2116.94 3050.56 2118.91 3050.56 2118.91 3052.53 2116.94 3052.53Z"/><path d="M2174.03 3023 2176 3023 2176 3038.75 2174.03 3038.75Z"/><path d="M2170.09 3023 2172.06 3023 2172.06 3034.81 2170.09 3034.81Z"/><path d="M2166.16 3023 2168.13 3023 2168.13 3030.88 2166.16 3030.88Z"/></g></g></g><text fill="#00646E" font-family="Siemens Sans,Siemens Sans_MSFontService,sans-serif" font-style="italic" font-weight="700" font-size="37" transform="translate(2193.03 3065)">Shape the action/mode <tspan fill="#41AAAA" x="412.5" y="0">that can be performed on </tspan><tspan fill="#41AAAA" x="0" y="45">the data</tspan></text></g></svg>