<svg width="895" height="465" xmlns="http://www.w3.org/2000/svg" xmlns:xlink="http://www.w3.org/1999/xlink" overflow="hidden"><defs><clipPath id="clip0"><path d="M138 2632 1033 2632 1033 3097 138 3097Z" fill-rule="evenodd" clip-rule="evenodd"/></clipPath><clipPath id="clip1"><path d="M151 3020 214 3020 214 3083 151 3083Z" fill-rule="evenodd" clip-rule="evenodd"/></clipPath><clipPath id="clip2"><path d="M151 3020 214 3020 214 3083 151 3083Z" fill-rule="evenodd" clip-rule="evenodd"/></clipPath><clipPath id="clip3"><path d="M151 3020 214 3020 214 3083 151 3083Z" fill-rule="evenodd" clip-rule="evenodd"/></clipPath></defs><g clip-path="url(#clip0)" transform="translate(-138 -2632)"><rect x="149" y="2634" width="828" height="377" fill="#262626"/><text fill="#F8F8F2" font-family="Cascadia Code,Cascadia Code_MSFontService,sans-serif" font-weight="400" font-size="24" transform="translate(152.813 2663)">&lt;http://alice.pod/share/policy&gt; <tspan fill="#AE81FF" x="448" y="0">a</tspan><tspan fill="#F4BF75" x="476" y="0">odrl:</tspan><tspan fill="#FFFFFF" x="546" y="0">Policy</tspan><tspan x="644" y="0">; </tspan><tspan fill="#F4BF75" x="28" y="38">odrl:</tspan><tspan fill="#FFFFFF" x="98" y="38">permission</tspan><tspan x="252" y="38">[ </tspan><tspan fill="#F4BF75" x="56" y="75">odrl:</tspan><tspan fill="#FFFFFF" x="126" y="75">target</tspan><tspan x="224" y="75">[ </tspan><tspan fill="#AE81FF" x="84" y="112">a</tspan><tspan fill="#F4BF75" x="112" y="112">odrl:</tspan><tspan fill="#FFFFFF" x="182" y="112">AssetCollection</tspan><tspan x="406" y="112">; </tspan><tspan fill="#F4BF75" x="84" y="150">odrl:</tspan><tspan fill="#FFFFFF" x="154" y="150">source</tspan><tspan x="252" y="150">&lt;https://alice.databox.me/docs/file1&gt; ; </tspan><tspan fill="#F4BF75" x="84" y="187">odrl:</tspan><tspan fill="#FFFFFF" x="154" y="187">refinement</tspan><tspan x="308" y="187">[ </tspan><tspan fill="#75715E" x="336" y="187"># </tspan><tspan fill="#75715E" x="364" y="187">refine</tspan><tspan fill="#75715E" x="462" y="187">the</tspan><tspan fill="#75715E" x="518" y="187">asset</tspan><tspan fill="#75715E" x="588" y="187">/</tspan><tspan fill="#75715E" x="602" y="187">resource</tspan><tspan fill="#AE81FF" x="112" y="225">a</tspan><tspan fill="#F4BF75" x="140" y="225">sh:</tspan><tspan fill="#FFFFFF" x="182" y="225">NodeShape</tspan><tspan x="322" y="225">; </tspan><tspan fill="#F4BF75" x="112" y="262">sh:</tspan><tspan fill="#FFFFFF" x="154" y="262">pattern</tspan><tspan fill="#A6E22E" x="266" y="262">"</tspan><tspan fill="#A6E22E" x="280" y="262">public</tspan><tspan fill="#A6E22E" x="364" y="262">"</tspan><tspan x="392" y="262">; </tspan><tspan fill="#F4BF75" x="420" y="262">sh:</tspan><tspan fill="#FFFFFF" x="462" y="262">flags</tspan><tspan fill="#A6E22E" x="546" y="262">"i"</tspan><tspan x="84" y="300">] ] ; </tspan><tspan fill="#F4BF75" x="56" y="337">odrl:</tspan><tspan fill="#FFFFFF" x="126" y="337">action</tspan><tspan fill="#F4BF75" x="224" y="337">acl:</tspan><tspan fill="#FFFFFF" x="280" y="337">Read</tspan><tspan x="350" y="337">; ] .</tspan></text><g clip-path="url(#clip1)"><g clip-path="url(#clip2)"><g clip-path="url(#clip3)"><path d="M182.5 3065.28 185.235 3065.28C186.052 3066.19 187.347 3066.51 188.49 3066.07 189.634 3065.63 190.39 3064.54 190.39 3063.31 190.39 3062.09 189.634 3060.99 188.49 3060.55 187.347 3060.12 186.052 3060.43 185.235 3061.34L182.5 3061.34 182.5 3055.44 185.453 3055.44 185.453 3052.7C184.54 3051.89 184.226 3050.59 184.663 3049.45 185.1 3048.3 186.198 3047.55 187.422 3047.55 188.646 3047.55 189.744 3048.3 190.181 3049.45 190.618 3050.59 190.303 3051.89 189.391 3052.7L189.391 3055.44 198.615 3055.44C199.023 3053.48 199.231 3051.48 199.234 3049.48L199.234 3031.81 198.663 3031.77C194.412 3031.47 190.24 3030.46 186.319 3028.79 182.395 3027.13 178.776 3024.82 175.609 3021.97 169.23 3027.71 161.117 3031.16 152.555 3031.77L151.984 3031.81 151.984 3049.48C151.984 3059.35 156.919 3068.57 165.135 3074.05L175.609 3081.03 186.084 3074.05C187.758 3072.93 189.312 3071.64 190.723 3070.2L182.5 3070.2Z" fill="#FF8A65"/><path d="M203.172 3067.25 203.172 3064.51C204.085 3063.7 204.399 3062.4 203.962 3061.26 203.525 3060.12 202.427 3059.36 201.203 3059.36 199.979 3059.36 198.881 3060.12 198.444 3061.26 198.008 3062.4 198.322 3063.7 199.234 3064.51L199.234 3067.25 196.281 3067.25 196.281 3073.16 199.017 3073.16C199.833 3072.24 201.128 3071.93 202.272 3072.37 203.416 3072.8 204.171 3073.9 204.171 3075.13 204.171 3076.35 203.416 3077.45 202.272 3077.88 201.128 3078.32 199.833 3078.01 199.017 3077.09L196.281 3077.09 196.281 3082.02 204.505 3082.02C208.505 3077.96 211.246 3072.83 212.397 3067.25Z" fill="#A6E7FF"/><path d="M182.5 3070.2 182.5 3065.28 185.235 3065.28C186.052 3066.19 187.347 3066.51 188.49 3066.07 189.634 3065.63 190.39 3064.54 190.39 3063.31 190.39 3062.09 189.634 3060.99 188.49 3060.55 187.347 3060.12 186.052 3060.43 185.235 3061.34L182.5 3061.34 182.5 3055.44 185.453 3055.44 185.453 3052.7C184.54 3051.89 184.226 3050.59 184.663 3049.45 185.1 3048.3 186.198 3047.55 187.422 3047.55 188.646 3047.55 189.744 3048.3 190.181 3049.45 190.618 3050.59 190.303 3051.89 189.391 3052.7L189.391 3055.44 194.589 3055.44C195.058 3053.49 195.295 3051.48 195.297 3049.48L195.297 3035.37C191.679 3034.84 188.145 3033.85 184.784 3032.41 181.511 3031.03 178.428 3029.24 175.609 3027.08 169.853 3031.46 163.079 3034.31 155.922 3035.37L155.922 3049.48C155.913 3058.04 160.191 3066.03 167.319 3070.77L175.609 3076.3 183.9 3070.77C184.173 3070.59 184.433 3070.39 184.698 3070.2Z" fill="#FFE082"/><path d="M174.625 3031.81 176.594 3031.81 176.594 3045.59 174.625 3045.59Z" fill="#FFFFFF"/><path d="M170.688 3034.77 172.656 3034.77 172.656 3042.64 170.688 3042.64Z" fill="#FFFFFF"/><path d="M166.75 3036.73 168.719 3036.73 168.719 3040.67 166.75 3040.67Z" fill="#FFFFFF"/><path d="M183.484 3066.27 184.833 3066.27C186.416 3067.66 188.818 3067.56 190.279 3066.04 191.74 3064.51 191.74 3062.11 190.279 3060.59 188.818 3059.06 186.416 3058.96 184.833 3060.36L183.484 3060.36 183.484 3056.42 186.438 3056.42 186.438 3052.26 186.113 3051.97C185.695 3051.6 185.455 3051.07 185.453 3050.52 185.453 3049.43 186.335 3048.55 187.422 3048.55 188.509 3048.55 189.391 3049.43 189.391 3050.52 189.39 3051.07 189.15 3051.6 188.731 3051.97L188.406 3052.27 188.406 3056.42 199.417 3056.42 199.58 3055.63C200.001 3053.61 200.214 3051.55 200.219 3049.48L200.219 3030.89 198.734 3030.79C194.59 3030.5 190.524 3029.52 186.704 3027.89 182.881 3026.27 179.354 3024.02 176.27 3021.24L175.609 3020.64 174.95 3021.23C168.726 3026.82 160.825 3030.18 152.487 3030.79L151 3030.89 151 3049.48C150.988 3059.68 156.091 3069.22 164.589 3074.87L175.609 3082.21 186.635 3074.86C188.364 3073.71 189.97 3072.38 191.428 3070.89L193.075 3069.22 183.484 3069.22ZM185.538 3073.23 175.609 3079.85 165.681 3073.23C157.731 3067.94 152.958 3059.02 152.969 3049.48L152.969 3032.73C161.323 3032.04 169.247 3028.74 175.609 3023.28 178.697 3025.94 182.179 3028.11 185.932 3029.7 189.847 3031.37 194.007 3032.39 198.25 3032.73L198.25 3049.48C198.248 3051.15 198.098 3052.81 197.802 3054.45L195.8 3054.45C196.117 3052.81 196.278 3051.14 196.281 3049.47L196.281 3034.51 195.438 3034.39C191.903 3033.88 188.45 3032.91 185.167 3031.5 181.972 3030.15 178.962 3028.4 176.209 3026.29L175.609 3025.84 175.019 3026.3C169.394 3030.58 162.777 3033.37 155.784 3034.4L154.938 3034.52 154.938 3045.59 156.906 3045.59 156.906 3036.21C163.673 3035.08 170.08 3032.37 175.609 3028.31 178.332 3030.32 181.282 3032 184.4 3033.32 187.576 3034.68 190.904 3035.65 194.313 3036.21L194.313 3049.47C194.308 3051.15 194.133 3052.82 193.789 3054.45L190.375 3054.45 190.375 3053.1C191.771 3051.52 191.671 3049.12 190.147 3047.66 188.624 3046.2 186.22 3046.2 184.697 3047.66 183.173 3049.12 183.073 3051.52 184.469 3053.1L184.469 3054.45 181.516 3054.45 181.516 3062.33 185.673 3062.33 185.968 3062C186.336 3061.59 186.865 3061.35 187.422 3061.34 188.509 3061.34 189.391 3062.23 189.391 3063.31 189.391 3064.4 188.509 3065.28 187.422 3065.28 186.864 3065.28 186.334 3065.04 185.966 3064.62L185.671 3064.3 181.516 3064.3 181.516 3071.18 175.609 3075.12 167.868 3069.96C162.695 3066.52 159.019 3061.25 157.579 3055.21L155.663 3055.67C157.22 3062.19 161.19 3067.88 166.774 3071.59L175.609 3077.48 184.45 3071.59C184.623 3071.47 184.787 3071.35 184.95 3071.23L185.014 3071.19 188.227 3071.19C187.372 3071.92 186.474 3072.6 185.538 3073.23Z"/><path d="M204.156 3064.92C205.553 3063.33 205.452 3060.93 203.928 3059.47 202.405 3058.01 200.001 3058.01 198.478 3059.47 196.954 3060.93 196.854 3063.33 198.25 3064.92L198.25 3066.27 195.297 3066.27 195.297 3074.14 199.454 3074.14 199.749 3073.82C200.117 3073.4 200.647 3073.16 201.203 3073.16 202.29 3073.16 203.172 3074.04 203.172 3075.13 203.172 3076.21 202.29 3077.09 201.203 3077.09 200.646 3077.09 200.115 3076.85 199.747 3076.43L199.452 3076.11 195.297 3076.11 195.297 3083 204.915 3083 205.205 3082.7C209.342 3078.51 212.175 3073.21 213.361 3067.45L213.606 3066.27 204.156 3066.27ZM211.162 3068.23C209.959 3073.04 207.521 3077.45 204.088 3081.03L197.266 3081.03 197.266 3078.08 198.614 3078.08C200.197 3079.47 202.599 3079.37 204.061 3077.85 205.521 3076.33 205.521 3073.92 204.061 3072.4 202.599 3070.88 200.197 3070.78 198.614 3072.17L197.266 3072.17 197.266 3068.23 200.219 3068.23 200.219 3064.08 199.894 3063.78C199.476 3063.41 199.236 3062.88 199.234 3062.33 199.234 3061.24 200.116 3060.36 201.203 3060.36 202.29 3060.36 203.172 3061.24 203.172 3062.33 203.171 3062.89 202.931 3063.42 202.512 3063.78L202.188 3064.08 202.188 3068.23Z"/><path d="M156.982 3051.43 155.019 3051.57C155.071 3052.26 155.154 3052.96 155.266 3053.63L157.209 3053.31C157.103 3052.69 157.029 3052.06 156.982 3051.43Z"/><path d="M154.938 3047.56 156.906 3047.56 156.906 3049.53 154.938 3049.53Z"/><path d="M212.031 3020 214 3020 214 3035.75 212.031 3035.75Z"/><path d="M208.094 3020 210.063 3020 210.063 3031.81 208.094 3031.81Z"/><path d="M204.156 3020 206.125 3020 206.125 3027.88 204.156 3027.88Z"/></g></g></g><text fill="#00646E" font-family="Siemens Sans,Siemens Sans_MSFontService,sans-serif" font-style="italic" font-weight="700" font-size="37" transform="translate(231.542 3065)">Shape the resource <tspan fill="#41AAAA" x="345" y="0">that can be accessed</tspan></text></g></svg>